Coordinates
version=1
nRows=6
nColumns=34
inDegrees=yes

Units are S.I. units (second, meters, Newtons, ...)
If the header above contains a line with 'inDegrees', this indicates whether rotational values are in degrees (yes) or radians (no).

endheader
time	pelvis_tilt	pelvis_list	pelvis_rotation	pelvis_tx	pelvis_ty	pelvis_tz	hip_flexion_r	hip_adduction_r	hip_rotation_r	knee_angle_r	ankle_angle_r	subtalar_angle_r	mtp_angle_r	hip_flexion_l	hip_adduction_l	hip_rotation_l	knee_angle_l	ankle_angle_l	subtalar_angle_l	mtp_angle_l	lumbar_extension	lumbar_bending	lumbar_rotation	arm_flex_r	arm_add_r	arm_rot_r	elbow_flex_r	pro_sup_r	arm_flex_l	arm_add_l	arm_rot_l	elbow_flex_l	pro_sup_l
      0.00000000	      2.91798226	      4.62934937	     -2.07330574	      0.51153034	      0.96020920	     -0.15633303	     12.87760015	    -10.91717336	      6.34270324	     39.03267224	     12.33855645	    -16.36334089	      0.00000000	     -1.31649926	     11.17500996	     -0.66696740	     10.10935160	     14.73767436	    -10.72613011	      0.00000000	      1.77290755	     -4.81690630	     -1.34233929	     35.93217374	      8.93446566	     55.61015831	    115.52805500	    114.85198559	     43.08635583	      6.55161767	     62.25004705	    110.43230880	     95.35872445
      0.01666670	      1.56531484	      4.62556335	     -0.98861993	      0.51384210	      0.95821017	     -0.15717428	     13.68727246	    -11.10838271	      5.94184297	     37.97885038	     16.61690363	     -9.99374050	      0.00000000	     -0.36392596	     11.63021527	     -0.66918007	      9.17720434	     13.59934975	     -9.60182414	      0.00000000	      4.14381432	     -4.43651613	     -2.65112988	     36.59697005	      9.63151945	     55.55142561	    118.03473084	    113.94115442	     44.56028830	      5.42321730	     61.76440547	    114.91914360	     95.69888540
      0.03333330	      0.45889858	      5.50964814	     -1.18277685	      0.51497350	      0.95107422	     -0.15807579	     15.89862295	    -12.29041700	      6.64230471	     39.46535715	     18.83884322	     -8.20226438	      0.00000000	      0.96466342	     12.71778752	     -2.44161586	      9.30007534	     13.36630600	     -7.79418249	      0.00000000	      5.89940024	     -5.56787224	     -2.42387130	     36.40141657	      9.90170527	     56.99642380	    119.10326981	    113.20191295	     44.69509446	      4.54353778	     61.50698310	    117.18201740	     95.63112853
      0.05000000	      0.41130838	      6.55177660	     -1.42515171	      0.51387713	      0.94868464	     -0.15841424	     17.65842321	    -13.25317665	      7.78792023	     41.97799073	     20.08762148	     -7.92037191	      0.00000000	      0.43473312	     14.14617249	     -2.46804083	      8.14853281	     13.26151015	     -7.17215110	      0.00000000	      6.20460357	     -7.14815092	     -2.09798653	     36.28714557	     10.35727707	     58.35978151	    119.09499817	    112.86513436	     45.31461929	      4.27254434	     61.76319112	    117.41773214	     95.37816593
      0.06666670	     -0.34289660	      7.12025496	     -1.56283420	      0.51270799	      0.94807686	     -0.15826891	     20.20396183	    -13.67547159	      8.34904703	     44.59873977	     20.97994184	     -6.69348530	      0.00000000	      1.08880864	     14.83876297	     -2.64855666	      7.65448177	     13.40771293	     -6.67579497	      0.00000000	      7.32657769	     -7.81780350	     -1.45643240	     35.85848231	     10.59669092	     59.70761386	    118.50374577	    111.79147978	     45.65990540	      4.24694823	     62.84879702	    117.59789936	     94.15057806
      0.08333330	     -1.10250554	      7.48461469	     -1.48482091	      0.51057758	      0.95152030	     -0.15825409	     22.65083824	    -13.74829264	      8.63945535	     46.92769357	     20.28525382	     -7.26938537	      0.00000000	      1.87847220	     15.22094006	     -2.54358978	      7.34188533	     13.33753387	     -6.33113505	      0.00000000	      8.38858534	     -8.52652639	     -0.81656690	     34.68337969	     10.09604105	     60.06044148	    118.38315893	    108.35932895	     45.31925467	      4.50228580	     63.95007641	    117.13722442	     89.30428445
